<svg width="34" height="40" viewBox="0 0 34 40" fill="none" xmlns="http://www.w3.org/2000/svg">
<g clip-path="url(#clip0_1428_3984)">
<path d="M32.7812 15.5556C32.7812 17.6033 32.0221 20.132 30.7897 22.803C29.5617 25.4645 27.8832 28.2258 26.0893 30.7262C24.2949 33.227 22.3943 35.454 20.7281 37.0502C19.8942 37.849 19.1285 38.4808 18.4718 38.9095C17.7962 39.3507 17.304 39.5312 17 39.5312C16.696 39.5312 16.2038 39.3507 15.5282 38.9095C14.8715 38.4808 14.1058 37.849 13.2719 37.0502C11.6057 35.454 9.70507 33.227 7.91074 30.7262C6.11678 28.2258 4.43832 25.4645 3.21027 22.803C1.97785 20.132 1.21875 17.6033 1.21875 15.5556C1.21875 7.24243 8.26475 0.46875 17 0.46875C25.7352 0.46875 32.7812 7.24243 32.7812 15.5556Z" fill="#C51F1F" stroke="#047857" stroke-width="0.9375"/>
<path d="M10.75 14.3846H11.7917M10.75 18.5513H11.7917M22.2083 18.5513H23.25M22.2083 14.3846H23.25M16.4792 14.3846H17.5208M14.9167 24.2804V20.1138C14.9167 18.9633 15.8494 18.0304 17 18.0304C18.1506 18.0304 19.0833 18.9633 19.0833 20.1138V24.2804M22.2083 10.218L23.8501 10.6284C24.7529 10.8541 25.2043 10.967 25.5404 11.2186C25.8369 11.4407 26.0689 11.7378 26.2124 12.0793C26.375 12.4664 26.375 12.9317 26.375 13.8622V20.9471C26.375 22.114 26.375 22.6973 26.1479 23.1429C25.9482 23.535 25.6295 23.8537 25.2375 24.0535C24.7919 24.2804 24.2084 24.2804 23.0417 24.2804H10.9583C9.79156 24.2804 9.20817 24.2804 8.76252 24.0535C8.37051 23.8537 8.0518 23.535 7.85207 23.1429C7.625 22.6973 7.625 22.114 7.625 20.9471V13.8622C7.625 12.9317 7.625 12.4664 7.78764 12.0793C7.93113 11.7378 8.16309 11.4407 8.45962 11.2186C8.79572 10.967 9.2471 10.8541 10.1499 10.6284L11.7917 10.218L14.7701 7.53739C15.5582 6.82805 15.9524 6.47338 16.398 6.33886C16.7906 6.22038 17.2094 6.22038 17.602 6.33886C18.0476 6.47338 18.4418 6.82805 19.2299 7.53739L22.2083 10.218Z" stroke="#F6F6F6" stroke-width="1.875" stroke-linecap="round" stroke-linejoin="round"/>
</g>
<defs>
<clipPath id="clip0_1428_3984">
<rect width="32.5" height="40" fill="white" transform="translate(0.75)"/>
</clipPath>
</defs>
</svg>
